<mxfile host="Electron" modified="2024-03-14T16:41:53.347Z" agent="Mozilla/5.0 (Windows NT 10.0; Win64; x64) AppleWebKit/537.36 (KHTML, like Gecko) draw.io/24.0.4 Chrome/120.0.6099.109 Electron/28.1.0 Safari/537.36" etag="44DQecTualw8oFjxKEBT" version="24.0.4" type="device">
  <diagram name="第 1 页" id="qZhqS-gvbPMV8PU6eT4b">
    <mxGraphModel dx="2474" dy="1614" grid="0" gridSize="10" guides="1" tooltips="1" connect="1" arrows="1" fold="1" page="0" pageScale="1" pageWidth="827" pageHeight="1169" math="0" shadow="0">
      <root>
        <mxCell id="0" />
        <mxCell id="1" parent="0" />
        <mxCell id="zLQEthBd-9eHsvL4zg0z-9" style="rounded=0;orthogonalLoop=1;jettySize=auto;html=1;exitX=1;exitY=0.5;exitDx=0;exitDy=0;entryX=0;entryY=0.5;entryDx=0;entryDy=0;sketch=1;curveFitting=1;jiggle=2;fontSize=15;fontStyle=1" edge="1" parent="1" source="zLQEthBd-9eHsvL4zg0z-1" target="zLQEthBd-9eHsvL4zg0z-4">
          <mxGeometry relative="1" as="geometry" />
        </mxCell>
        <mxCell id="zLQEthBd-9eHsvL4zg0z-1" value="Driver1" style="rounded=0;whiteSpace=wrap;html=1;fillColor=#fff2cc;strokeColor=#d6b656;fontSize=15;fontStyle=1" vertex="1" parent="1">
          <mxGeometry x="-334" y="-30" width="120" height="60" as="geometry" />
        </mxCell>
        <mxCell id="zLQEthBd-9eHsvL4zg0z-10" style="rounded=0;orthogonalLoop=1;jettySize=auto;html=1;exitX=1;exitY=0.5;exitDx=0;exitDy=0;entryX=0;entryY=0.5;entryDx=0;entryDy=0;sketch=1;curveFitting=1;jiggle=2;fontSize=15;fontStyle=1" edge="1" parent="1" source="zLQEthBd-9eHsvL4zg0z-2" target="zLQEthBd-9eHsvL4zg0z-4">
          <mxGeometry relative="1" as="geometry" />
        </mxCell>
        <mxCell id="zLQEthBd-9eHsvL4zg0z-12" style="rounded=0;orthogonalLoop=1;jettySize=auto;html=1;exitX=1;exitY=0.5;exitDx=0;exitDy=0;entryX=0;entryY=0.5;entryDx=0;entryDy=0;dashed=1;fontSize=15;fontStyle=1" edge="1" parent="1" source="zLQEthBd-9eHsvL4zg0z-2" target="zLQEthBd-9eHsvL4zg0z-5">
          <mxGeometry relative="1" as="geometry" />
        </mxCell>
        <mxCell id="zLQEthBd-9eHsvL4zg0z-2" value="Driver2" style="rounded=0;whiteSpace=wrap;html=1;fillColor=#fff2cc;strokeColor=#d6b656;fontSize=15;fontStyle=1" vertex="1" parent="1">
          <mxGeometry x="-334" y="87" width="120" height="60" as="geometry" />
        </mxCell>
        <mxCell id="zLQEthBd-9eHsvL4zg0z-11" style="rounded=0;orthogonalLoop=1;jettySize=auto;html=1;exitX=1;exitY=0.5;exitDx=0;exitDy=0;entryX=0;entryY=0.5;entryDx=0;entryDy=0;sketch=1;curveFitting=1;jiggle=2;fontSize=15;fontStyle=1" edge="1" parent="1" source="zLQEthBd-9eHsvL4zg0z-3" target="zLQEthBd-9eHsvL4zg0z-4">
          <mxGeometry relative="1" as="geometry" />
        </mxCell>
        <mxCell id="zLQEthBd-9eHsvL4zg0z-13" style="rounded=0;orthogonalLoop=1;jettySize=auto;html=1;exitX=1;exitY=0.5;exitDx=0;exitDy=0;entryX=0;entryY=0.5;entryDx=0;entryDy=0;dashed=1;fontSize=15;fontStyle=1" edge="1" parent="1" source="zLQEthBd-9eHsvL4zg0z-3" target="zLQEthBd-9eHsvL4zg0z-5">
          <mxGeometry relative="1" as="geometry" />
        </mxCell>
        <mxCell id="zLQEthBd-9eHsvL4zg0z-3" value="Driver3" style="rounded=0;whiteSpace=wrap;html=1;fillColor=#fff2cc;strokeColor=#d6b656;fontSize=15;fontStyle=1" vertex="1" parent="1">
          <mxGeometry x="-334" y="204" width="120" height="60" as="geometry" />
        </mxCell>
        <mxCell id="zLQEthBd-9eHsvL4zg0z-14" style="rounded=0;orthogonalLoop=1;jettySize=auto;html=1;exitX=1;exitY=0.5;exitDx=0;exitDy=0;entryX=0;entryY=0.5;entryDx=0;entryDy=0;" edge="1" parent="1" source="zLQEthBd-9eHsvL4zg0z-4" target="zLQEthBd-9eHsvL4zg0z-6">
          <mxGeometry relative="1" as="geometry" />
        </mxCell>
        <mxCell id="zLQEthBd-9eHsvL4zg0z-15" style="rounded=0;orthogonalLoop=1;jettySize=auto;html=1;exitX=1;exitY=0.5;exitDx=0;exitDy=0;entryX=0;entryY=0.5;entryDx=0;entryDy=0;" edge="1" parent="1" source="zLQEthBd-9eHsvL4zg0z-4" target="zLQEthBd-9eHsvL4zg0z-7">
          <mxGeometry relative="1" as="geometry" />
        </mxCell>
        <mxCell id="zLQEthBd-9eHsvL4zg0z-4" value="MCU1" style="rounded=0;whiteSpace=wrap;html=1;fillColor=#d5e8d4;strokeColor=#82b366;fontSize=15;fontStyle=1" vertex="1" parent="1">
          <mxGeometry x="-47" y="27" width="120" height="60" as="geometry" />
        </mxCell>
        <mxCell id="zLQEthBd-9eHsvL4zg0z-16" style="rounded=0;orthogonalLoop=1;jettySize=auto;html=1;exitX=1;exitY=0.5;exitDx=0;exitDy=0;entryX=0;entryY=0.5;entryDx=0;entryDy=0;dashed=1;" edge="1" parent="1" source="zLQEthBd-9eHsvL4zg0z-5" target="zLQEthBd-9eHsvL4zg0z-7">
          <mxGeometry relative="1" as="geometry" />
        </mxCell>
        <mxCell id="zLQEthBd-9eHsvL4zg0z-17" style="rounded=0;orthogonalLoop=1;jettySize=auto;html=1;exitX=1;exitY=0.5;exitDx=0;exitDy=0;entryX=0;entryY=0.5;entryDx=0;entryDy=0;dashed=1;" edge="1" parent="1" source="zLQEthBd-9eHsvL4zg0z-5" target="zLQEthBd-9eHsvL4zg0z-8">
          <mxGeometry relative="1" as="geometry" />
        </mxCell>
        <mxCell id="zLQEthBd-9eHsvL4zg0z-5" value="MCU2" style="rounded=0;whiteSpace=wrap;html=1;fillColor=#d5e8d4;strokeColor=#82b366;fontSize=15;fontStyle=1" vertex="1" parent="1">
          <mxGeometry x="-47" y="147" width="120" height="60" as="geometry" />
        </mxCell>
        <mxCell id="zLQEthBd-9eHsvL4zg0z-6" value="Flash1" style="rounded=0;whiteSpace=wrap;html=1;fillColor=#d5e8d4;strokeColor=#82b366;fontSize=15;fontStyle=1" vertex="1" parent="1">
          <mxGeometry x="221" y="-30" width="120" height="60" as="geometry" />
        </mxCell>
        <mxCell id="zLQEthBd-9eHsvL4zg0z-7" value="Flash2" style="rounded=0;whiteSpace=wrap;html=1;fillColor=#d5e8d4;strokeColor=#82b366;fontSize=15;fontStyle=1" vertex="1" parent="1">
          <mxGeometry x="221" y="87" width="120" height="60" as="geometry" />
        </mxCell>
        <mxCell id="zLQEthBd-9eHsvL4zg0z-8" value="Flash3" style="rounded=0;whiteSpace=wrap;html=1;fillColor=#d5e8d4;strokeColor=#82b366;fontSize=15;fontStyle=1" vertex="1" parent="1">
          <mxGeometry x="221" y="204" width="120" height="60" as="geometry" />
        </mxCell>
      </root>
    </mxGraphModel>
  </diagram>
</mxfile>
